<svg width="24" height="24" viewBox="0 0 24 24" fill="none" xmlns="http://www.w3.org/2000/svg">
<path fill-rule="evenodd" clip-rule="evenodd" d="M11.4515 1.643C11.791 1.4525 12.209 1.4525 12.548 1.643C14.2255 2.5845 19.2735 5.4185 20.9515 6.36C21.291 6.55 21.5 6.902 21.5 7.283C21.5 9.166 21.5 14.8335 21.5 16.7165C21.5 17.0975 21.291 17.4495 20.9515 17.64C19.274 18.5815 14.226 21.4155 12.548 22.357C12.2085 22.5475 11.7905 22.5475 11.4515 22.357C9.774 21.4155 4.726 18.5815 3.048 17.64C2.709 17.4495 2.5 17.098 2.5 16.717C2.5 14.834 2.5 9.1665 2.5 7.2835C2.5 6.9025 2.709 6.5505 3.0485 6.36C4.7255 5.4185 9.7745 2.5845 11.4515 1.643Z" fill="#586F86"/>
<path fill-rule="evenodd" clip-rule="evenodd" d="M2.652 17.202C2.519 17.024 2.5 16.855 2.5 16.6275C2.5 14.7555 2.5 9.12052 2.5 7.24802C2.5 6.86902 2.7085 6.51902 3.047 6.33002C4.7185 5.39402 9.7495 2.57652 11.421 1.64002C11.7595 1.45052 12.218 1.45452 12.5565 1.64402C14.228 2.58002 19.242 5.37352 20.9135 6.30952C21.0485 6.38552 21.1515 6.47702 21.2435 6.59752L2.652 17.202Z" fill="#607B96"/>
<path fill-rule="evenodd" clip-rule="evenodd" d="M12 5C15.8635 5 19 8.1365 19 12C19 15.8635 15.8635 19 12 19C8.1365 19 5 15.8635 5 12C5 8.1365 8.1365 5 12 5ZM12 8.5C13.9315 8.5 15.5 10.068 15.5 12C15.5 13.9315 13.9315 15.5 12 15.5C10.0685 15.5 8.5 13.9315 8.5 12C8.5 10.068 10.068 8.5 12 8.5Z" fill="white"/>
<path fill-rule="evenodd" clip-rule="evenodd" d="M21.2429 6.60254C21.5009 6.84404 21.4959 7.20804 21.4959 7.49454C21.4959 9.39204 21.4799 14.789 21.5004 16.6865C21.5024 16.8845 21.4369 17.093 21.3389 17.25L11.7969 12L21.2429 6.60254Z" fill="#576676"/>
</svg>
