<svg width="24" height="24" viewBox="0 0 24 24" fill="none" xmlns="http://www.w3.org/2000/svg">
<g clip-path="url(#clip0_2842_968)">
<path d="M20.0941 6.80251L16.6842 6.80164V13.5803C16.6842 16.5675 16.5293 17.705 16.0428 18.6859C15.5782 19.6449 14.8476 20.2705 13.3408 20.9836L16.5066 22.5C18.0124 21.7423 18.7439 21.051 19.2961 19.9581C19.8946 18.8215 20.0932 17.5055 20.0932 14.7633L20.0941 6.80251Z" fill="#607B96"/>
<path d="M14.6679 17.3944V1.5H11.2589V6.736C10.7496 6.60212 10.3279 6.5575 9.77488 6.5575C6.20837 6.5575 3.90625 8.83162 3.90625 12.3325C3.90625 15.9672 6.07538 17.8625 10.2395 17.8625C11.6343 17.8634 12.9188 17.7295 14.6679 17.3944ZM7.3835 12.266C7.3835 10.3926 8.37925 9.3225 10.1074 9.3225H10.103L10.1748 9.32162C10.5624 9.32162 10.9343 9.38725 11.258 9.501V15.0082C10.7706 15.0756 10.4609 15.0975 10.0846 15.0975C8.33463 15.0966 7.3835 14.0947 7.3835 12.266Z" fill="#607B96"/>
<path d="M20.0937 12H16.6839V13.5811C16.6839 16.5684 16.529 17.7059 16.0425 18.6868C15.5779 19.6458 14.8472 20.2714 13.3405 20.9845L16.5062 22.5C18.0121 21.7423 18.7436 21.051 19.2957 19.9581C19.8942 18.8215 20.0929 17.5055 20.0929 14.7632L20.0937 12ZM14.6679 12H11.2589V15.0082C10.7715 15.0756 10.4617 15.0975 10.0855 15.0975C8.3355 15.0975 7.3835 14.0948 7.3835 12.2669C7.3835 12.1759 7.38612 12.0875 7.3905 12.0009H3.91325C3.90887 12.1103 3.90625 12.2214 3.90625 12.3334C3.90625 15.9681 6.07537 17.8634 10.2395 17.8634C11.6342 17.8634 12.9187 17.7295 14.6679 17.3953V12Z" fill="#506880"/>
<path d="M20.0935 1.51843H16.6836V5.04206H20.0935V1.51843Z" fill="#607B96"/>
<path d="M18.389 1.51843H16.6836V5.04206H18.389V1.51843Z" fill="#607B96"/>
</g>
<defs>
<clipPath id="clip0_2842_968">
<rect width="21" height="21" fill="white" transform="translate(1.5 1.5)"/>
</clipPath>
</defs>
</svg>
