<svg width="24" height="24" viewBox="0 0 24 24" fill="none" xmlns="http://www.w3.org/2000/svg">
<path d="M11.2499 2.13184C11.112 2.13184 11 2.25464 11 2.40596V4.05068C11 4.202 11.112 4.32481 11.2499 4.32481H12.7499C12.888 4.32481 13 4.202 13 4.05068V2.40596C13 2.25464 12.888 2.13184 12.7499 2.13184H11.2499ZM5.25 5.4213C5.112 5.4213 5 5.5441 5 5.69542V7.34015C5 7.49146 5.112 7.61427 5.25 7.61427H6.75C6.888 7.61427 7 7.49146 7 7.34015V5.69542C7 5.5441 6.888 5.4213 6.75 5.4213H5.25ZM8.25 5.4213C8.112 5.4213 8 5.5441 8 5.69542V7.34015C8 7.49146 8.112 7.61427 8.25 7.61427H9.75C9.888 7.61427 9.99996 7.49146 9.99996 7.34015V5.69542C9.99996 5.5441 9.888 5.4213 9.75 5.4213H8.25ZM11.2499 5.4213C11.112 5.4213 11 5.5441 11 5.69542V7.34015C11 7.49146 11.112 7.61427 11.2499 7.61427H12.7499C12.888 7.61427 13 7.49146 13 7.34015V5.69542C13 5.5441 12.888 5.4213 12.7499 5.4213H11.2499ZM18.7393 6.68268L18.5127 7.03926C18.2291 7.51842 18.0229 8.04619 17.9014 8.60046C17.6718 9.66022 17.8107 10.6552 18.3038 11.5055C17.7082 11.8679 16.693 11.9926 16.5 12.0003H0.999997C0.4475 12.0003 0 12.4909 0 13.0967C0 14.1932 0.21686 15.7966 0.69336 17.2171C1.23786 18.7763 2.04854 19.9247 3.10254 20.6276C4.28354 21.4176 6.20243 21.8686 8.37793 21.8686C9.36043 21.8719 10.3416 21.7747 11.3077 21.5784C12.6506 21.3092 13.9429 20.7969 15.1309 20.0622C16.1098 19.4432 16.9907 18.6554 17.7403 17.73C18.9928 16.1817 19.739 14.4572 20.294 12.9254C20.2965 12.9237 20.2983 12.9233 20.3008 12.9211C21.7993 12.9874 22.7063 12.3526 23.1953 11.8246C23.5043 11.5044 23.7458 11.1135 23.9023 10.681L24 10.3673L23.7637 10.1639C23.6986 10.1074 23.091 9.60593 21.8095 9.60593C21.471 9.60758 21.1333 9.63983 20.7998 9.70123C20.5518 7.84543 19.147 6.93955 19.084 6.89898L18.7393 6.68268ZM2.25 8.71076C2.112 8.71076 2 8.83356 2 8.98487V10.6296C2 10.781 2.112 10.9038 2.25 10.9038H3.75C3.888 10.9038 4 10.781 4 10.6296V8.98487C4 8.83356 3.888 8.71076 3.75 8.71076H2.25ZM5.25 8.71076C5.112 8.71076 5 8.83356 5 8.98487V10.6296C5 10.781 5.112 10.9038 5.25 10.9038H6.75C6.888 10.9038 7 10.781 7 10.6296V8.98487C7 8.83356 6.888 8.71076 6.75 8.71076H5.25ZM8.25 8.71076C8.112 8.71076 8 8.83356 8 8.98487V10.6296C8 10.781 8.112 10.9038 8.25 10.9038H9.75C9.888 10.9038 9.99996 10.781 9.99996 10.6296V8.98487C9.99996 8.83356 9.888 8.71076 9.75 8.71076H8.25ZM11.2499 8.71076C11.112 8.71076 11 8.83356 11 8.98487V10.6296C11 10.781 11.112 10.9038 11.2499 10.9038H12.7499C12.888 10.9038 13 10.781 13 10.6296V8.98487C13 8.83356 12.888 8.71076 12.7499 8.71076H11.2499ZM14.2499 8.71076C14.112 8.71076 14 8.83356 14 8.98487V10.6296C14 10.781 14.112 10.9038 14.2499 10.9038H15.7499C15.888 10.9038 16 10.781 16 10.6296V8.98487C16 8.83356 15.888 8.71076 15.7499 8.71076H14.2499Z" fill="#607B96"/>
</svg>
