<svg width="24" height="24" viewBox="0 0 24 24" fill="none" xmlns="http://www.w3.org/2000/svg">
<g clip-path="url(#clip0_2870_1070)">
<path d="M12 0.24707C5.37 0.24707 1.73845e-06 5.63973 1.73845e-06 12.2977C-0.00135426 14.8275 0.790586 17.2934 2.26347 19.3458C3.73634 21.398 5.81538 22.9324 8.2056 23.7314C8.80565 23.8362 9.03005 23.4747 9.03005 23.1578C9.03005 22.8722 9.01445 21.9238 9.01445 20.9139C6 21.4719 5.22 20.1764 4.98 19.498C4.8444 19.1509 4.26 18.082 3.75 17.7952C3.33 17.5699 2.73 17.0119 3.7344 16.9975C4.68 16.9818 5.3544 17.8711 5.58 18.2327C6.66 20.0547 8.3856 19.5426 9.07445 19.2268C9.18005 18.4436 9.49445 17.9169 9.84005 17.6157C7.17 17.3144 4.38 16.2744 4.38 11.6651C4.38 10.354 4.8444 9.27059 5.61 8.42584C5.49 8.12457 5.07 6.88938 5.73 5.23242C5.73 5.23242 6.7344 4.91669 9.03005 6.46881C10.0068 6.19654 11.0162 6.0595 12.03 6.0615C13.05 6.0615 14.07 6.19647 15.03 6.46761C17.3244 4.90103 18.33 5.23362 18.33 5.23362C18.99 6.89059 18.57 8.12578 18.45 8.42704C19.2144 9.27059 19.68 10.3395 19.68 11.6651C19.68 16.2901 16.8756 17.3144 14.2056 17.6157C14.64 17.9917 15.0156 18.7147 15.0156 19.845C15.0156 21.4562 15 22.7517 15 23.159C15 23.4747 15.2256 23.8507 15.8256 23.7302C18.2076 22.9225 20.2775 21.3851 21.7439 19.3342C23.2102 17.2834 23.9993 14.8225 24 12.2977C24 5.63973 18.63 0.24707 12 0.24707Z" fill="#607B96"/>
</g>
<defs>
<clipPath id="clip0_2870_1070">
<rect width="24" height="24" fill="white"/>
</clipPath>
</defs>
</svg>
