<svg width="24" height="24" viewBox="0 0 24 24" fill="none" xmlns="http://www.w3.org/2000/svg">
<path d="M17.4545 2.81982C19.1905 2.81982 20.8553 3.54521 22.0828 4.8364C23.3104 6.12759 24 7.87881 24 9.70479V14.2948C24 16.1208 23.3104 17.8721 22.0828 19.1633C20.8553 20.4545 19.1905 21.1798 17.4545 21.1798H6.54545C4.80949 21.1798 3.14463 20.4545 1.91712 19.1633C0.689607 17.8721 0 16.1208 0 14.2948V9.70479C0 7.87881 0.689607 6.12759 1.91712 4.8364C3.14463 3.54521 4.80949 2.81982 6.54545 2.81982H17.4545ZM9.81818 8.55733H7.63636V10.8523H5.45455V13.1473H7.63527L7.63636 15.4423H9.81818L9.81709 13.1473H12V10.8523H9.81818V8.55733ZM18.5455 13.1473H16.3636V15.4423H18.5455V13.1473ZM16.3636 8.55733H14.1818V10.8523H16.3636V8.55733Z" fill="#607B96"/>
</svg>
