<svg width="24" height="24" viewBox="0 0 24 24" fill="none" xmlns="http://www.w3.org/2000/svg">
<path d="M1.5 1.5V22.5H22.5V1.5H1.5ZM12.9281 17.8781C12.9281 19.9219 11.7281 20.8547 9.97969 20.8547C8.4 20.8547 7.48594 20.0391 7.01719 19.05L8.625 18.0797C8.93437 18.6281 9.21563 19.0922 9.89531 19.0922C10.5422 19.0922 10.9547 18.8391 10.9547 17.85V11.1422H12.9281V17.8781ZM17.5969 20.8547C15.7641 20.8547 14.5781 19.9828 14.0016 18.8391L15.6094 17.9109C16.0312 18.6 16.5844 19.1109 17.5547 19.1109C18.3703 19.1109 18.8953 18.7031 18.8953 18.1359C18.8953 17.4609 18.3609 17.2219 17.4562 16.8234L16.9641 16.6125C15.5391 16.0078 14.5969 15.2437 14.5969 13.6359C14.5969 12.1547 15.7266 11.0297 17.4844 11.0297C18.7406 11.0297 19.6406 11.4656 20.2875 12.6094L18.75 13.5938C18.4125 12.9891 18.0469 12.75 17.4797 12.75C16.9031 12.75 16.5375 13.1156 16.5375 13.5938C16.5375 14.1844 16.9031 14.4234 17.7516 14.7938L18.2438 15.0047C19.9219 15.7219 20.8641 16.4578 20.8641 18.1078C20.8641 19.8797 19.4672 20.8547 17.5969 20.8547Z" fill="#607B96"/>
</svg>
