<svg width="24" height="24" viewBox="0 0 24 24" fill="none" xmlns="http://www.w3.org/2000/svg">
<g clip-path="url(#clip0_2870_1029)">
<path d="M1.6765 18.0109C1.78997 18.2046 1.95387 18.3498 2.15559 18.4588L11.8634 23.8339C12.2668 24.0638 12.7584 24.0638 13.1493 23.8339L22.857 18.4588C23.2604 18.2409 23.5 17.8293 23.5 17.3814V6.63132C23.5 6.1834 23.2604 5.77181 22.857 5.5539L13.1493 0.178857C12.7459 -0.0511556 12.2541 -0.0511556 11.8634 0.178857L2.15559 5.5539C1.73954 5.77181 1.5 6.1834 1.5 6.63132V17.3935C1.5 17.6114 1.55043 17.8172 1.6765 18.0109Z" fill="#607B96"/>
<path d="M9.03369 16.1015C9.03369 16.767 8.50417 17.2994 7.84228 17.2994C7.18039 17.2994 6.65088 16.767 6.65088 16.1015V7.88604C6.65088 7.24478 7.21649 6.7245 7.99873 6.7245C8.56435 6.7245 9.22624 6.95439 9.62337 7.45046L9.9844 7.88604L14.9666 13.8752V7.91024C14.9666 7.24477 15.4962 6.7124 16.158 6.7124C16.8199 6.7124 17.3494 7.24477 17.3494 7.91024V16.1257C17.3494 16.767 16.7838 17.2873 16.0016 17.2873C15.436 17.2873 14.7741 17.0574 14.377 16.5613L9.03369 10.1486V16.1015Z" fill="white"/>
</g>
<defs>
<clipPath id="clip0_2870_1029">
<rect width="24" height="24" fill="white"/>
</clipPath>
</defs>
</svg>
