<svg width="24" height="24" viewBox="0 0 24 24" fill="none" xmlns="http://www.w3.org/2000/svg">
<path d="M1.66848 18.0013C1.77679 18.1948 1.93324 18.34 2.12579 18.4489L11.3923 23.8211C11.7774 24.0509 12.2467 24.0509 12.6198 23.8211L21.8862 18.4489C22.2713 18.2311 22.5 17.8198 22.5 17.3721V6.62785C22.5 6.18017 22.2713 5.7688 21.8862 5.55101L12.6198 0.178886C12.2347 -0.0510023 11.7653 -0.0510023 11.3923 0.178886L2.12579 5.55101C1.72865 5.7688 1.5 6.18017 1.5 6.62785V17.3842C1.5 17.602 1.54814 17.8077 1.66848 18.0013Z" fill="#607B96"/>
<path d="M9.03369 16.1015C9.03369 16.767 8.50417 17.2994 7.84228 17.2994C7.18039 17.2994 6.65088 16.767 6.65088 16.1015V7.88604C6.65088 7.24478 7.21649 6.7245 7.99873 6.7245C8.56435 6.7245 9.22624 6.95439 9.62337 7.45046L9.9844 7.88604L14.9666 13.8752V7.91024C14.9666 7.24477 15.4962 6.7124 16.158 6.7124C16.8199 6.7124 17.3494 7.24477 17.3494 7.91024V16.1257C17.3494 16.767 16.7838 17.2873 16.0016 17.2873C15.436 17.2873 14.7741 17.0574 14.377 16.5613L9.03369 10.1486V16.1015Z" fill="white"/>
</svg>
