<svg width="24" height="24" viewBox="0 0 24 24" fill="none" xmlns="http://www.w3.org/2000/svg">
<g clip-path="url(#clip0_2870_1060)">
<path d="M11.7392 0C7.2004 0 6.26086 2.34375 6.26086 3.70108V6.26086H11.4783V6.7826H3.70108C1.97894 6.7826 0 8.13993 0 12C0 15.86 1.97894 17.2174 3.70108 17.2174H6.7826V14.087C6.7826 12.9395 7.72214 12 8.86955 12H15.1305C16.017 12 16.6957 11.3213 16.6957 10.4348V3.70108C16.6957 1.875 14.9735 0 11.7392 0ZM9.39129 2.60869C9.966 2.60869 10.4348 3.07744 10.4348 3.65217C10.4348 4.22689 9.966 4.69564 9.39129 4.69564C8.81656 4.69564 8.34781 4.22689 8.34781 3.65217C8.34781 3.07744 8.81656 2.60869 9.39129 2.60869ZM17.2174 6.7826V10.4348C17.2174 11.5822 16.2778 12.5218 15.1305 12.5218H8.86955C7.98301 12.5218 7.30433 13.2003 7.30433 14.087V20.2989C7.30433 22.125 9.02648 24 12.2609 24C16.7996 24 17.7391 21.6562 17.7391 20.2989V17.7391H12.5218V17.2174H20.2989C22.021 17.2174 24 15.86 24 12C24 8.13993 22.021 6.7826 20.2989 6.7826H17.2174ZM14.6087 19.3044C15.1834 19.3044 15.6522 19.7731 15.6522 20.3478C15.6522 20.9225 15.1834 21.3913 14.6087 21.3913C14.0339 21.3913 13.5652 20.9225 13.5652 20.3478C13.5652 19.7731 14.0339 19.3044 14.6087 19.3044Z" fill="#607B96"/>
</g>
<defs>
<clipPath id="clip0_2870_1060">
<rect width="24" height="24" fill="white"/>
</clipPath>
</defs>
</svg>
