<svg width="24" height="24" viewBox="0 0 24 24" fill="none" xmlns="http://www.w3.org/2000/svg">
<g clip-path="url(#clip0_2862_1003)">
<path d="M6.55245 10.2004C6.49359 10.0734 6.36643 9.99219 6.22656 9.99219C6.22628 9.99219 6.22601 9.99219 6.22573 9.99219C6.08553 9.99252 5.95831 10.0744 5.89995 10.2019L4.1196 14.0906C4.03703 14.271 4.11628 14.4842 4.29666 14.5668C4.34513 14.5889 4.39597 14.5994 4.44598 14.5994C4.58215 14.5994 4.71241 14.5216 4.77281 14.3896L5.21933 13.4143H7.25026L7.70303 14.3912C7.78647 14.5712 7.99996 14.6495 8.18 14.566C8.35999 14.4826 8.43825 14.2691 8.35486 14.0891L6.55245 10.2004ZM5.54826 12.6959L6.22861 11.21L6.91729 12.6959H5.54826Z" fill="#607B96"/>
<path d="M10.7009 9.94775H8.96419C8.7658 9.94775 8.60498 10.1086 8.60498 10.307V14.24C8.60498 14.4384 8.7658 14.5993 8.96419 14.5993C9.16259 14.5993 9.3234 14.4384 9.3234 14.24V12.746H10.7009C11.4724 12.746 12.0999 12.1184 12.0999 11.347C12.1 10.5754 11.4724 9.94775 10.7009 9.94775ZM10.7009 12.0276H9.3234V10.6662H10.7009C11.0762 10.6662 11.3815 10.9716 11.3815 11.3469C11.3816 11.7223 11.0762 12.0276 10.7009 12.0276Z" fill="#607B96"/>
<path d="M12.7357 9.94775C12.5373 9.94775 12.3765 10.1086 12.3765 10.307V14.24C12.3765 14.4384 12.5373 14.5993 12.7357 14.5993C12.9341 14.5993 13.0949 14.4384 13.0949 14.24V10.307C13.0949 10.1086 12.934 9.94775 12.7357 9.94775Z" fill="#607B96"/>
<path d="M21.8544 4.06897H2.14569C1.78963 4.06897 1.5 4.35871 1.5 4.71478V19.2852C1.5 19.6412 1.78963 19.9309 2.14569 19.9309H21.8544C22.2104 19.9309 22.5001 19.6412 22.5001 19.2852V4.71478C22.5 4.35871 22.2104 4.06897 21.8544 4.06897ZM17.0261 15.8279C17.3114 15.1542 17.9685 14.7188 18.7003 14.7188C18.9441 14.7188 19.1823 14.7673 19.4084 14.863C20.3311 15.2538 20.764 16.3224 20.3734 17.2451C20.0878 17.9189 19.4307 18.3542 18.6992 18.3542H18.6992C18.4554 18.3542 18.2172 18.3056 17.9912 18.2099C17.5442 18.0207 17.1976 17.6687 17.0154 17.2187C16.833 16.7688 16.8369 16.2749 17.0261 15.8279ZM19.2322 5.90835C19.6104 5.90835 19.9167 6.21489 19.9167 6.59289C19.9167 6.971 19.6104 7.27744 19.2322 7.27744C18.8542 7.27744 18.5477 6.971 18.5477 6.59289C18.5477 6.21489 18.8542 5.90835 19.2322 5.90835ZM17.179 5.90835C17.5569 5.90835 17.8635 6.21489 17.8635 6.59289C17.8635 6.971 17.5569 7.27744 17.179 7.27744C16.801 7.27744 16.4944 6.971 16.4944 6.59289C16.4944 6.21489 16.801 5.90835 17.179 5.90835ZM15.1257 5.90835C15.5037 5.90835 15.81 6.21489 15.81 6.59289C15.81 6.971 15.5037 7.27744 15.1257 7.27744C14.7475 7.27744 14.4412 6.971 14.4412 6.59289C14.4412 6.21489 14.7476 5.90835 15.1257 5.90835ZM2.67545 18.8531V9.31549H21.3246V13.0333C21.2396 12.9116 21.1214 12.8111 20.9749 12.749L19.8357 12.2668C19.7343 12.2238 19.6273 12.202 19.5177 12.202C19.1886 12.202 18.8931 12.3977 18.7649 12.7005L18.6956 12.864C18.1857 12.8712 17.6798 12.9887 17.2186 13.2063L17.0845 13.0899C17.0196 13.0336 16.9464 12.9881 16.8672 12.9546C16.7655 12.9116 16.6582 12.8897 16.5483 12.8897C16.312 12.8897 16.0873 12.9924 15.9319 13.1715L15.1211 14.1063C14.9784 14.2713 14.9081 14.4818 14.9232 14.6996C14.9389 14.9173 15.0384 15.116 15.2031 15.2585L15.3366 15.3745C15.1844 15.8635 15.1397 16.3791 15.2059 16.8856L15.054 16.977C14.6682 17.2091 14.5433 17.7121 14.7755 18.0985L15.263 18.9078H2.73016C2.69998 18.9078 2.67545 18.8833 2.67545 18.8531Z" fill="#607B96"/>
</g>
<defs>
<clipPath id="clip0_2862_1003">
<rect width="21" height="21" fill="white" transform="translate(1.5 1.5)"/>
</clipPath>
</defs>
</svg>
