<svg width="24" height="24" viewBox="0 0 24 24" fill="none" xmlns="http://www.w3.org/2000/svg">
<path d="M1.2 1.5H22.8C23.1182 1.5 23.4235 1.62291 23.6485 1.8417C23.8735 2.06049 24 2.35724 24 2.66666V21.3333C24 21.6427 23.8735 21.9394 23.6485 22.1583C23.4235 22.377 23.1182 22.5 22.8 22.5H1.2C0.881736 22.5 0.576516 22.377 0.351468 22.1583C0.126432 21.9394 0 21.6427 0 21.3333V2.66666C0 2.35724 0.126432 2.06049 0.351468 1.8417C0.576516 1.62291 0.881736 1.5 1.2 1.5ZM12 15.5V17.8333H19.2V15.5H12ZM7.6968 12L4.3032 15.2994L6 16.9502L11.0916 12L6 7.04982L4.3032 8.70065L7.6968 12Z" fill="#607B96"/>
</svg>
