<svg width="24" height="24" viewBox="0 0 24 24" fill="none" xmlns="http://www.w3.org/2000/svg">
<path fill-rule="evenodd" clip-rule="evenodd" d="M12 3.98975C8.7996 3.98975 6.8004 5.7694 6 9.33004C7.2 7.5504 8.6004 6.88286 10.2 7.32744C11.1132 7.58129 11.766 8.31867 12.4872 9.13395C13.6644 10.4623 15.0264 12.0002 18 12.0002C21.2004 12.0002 23.1996 10.2205 24 6.6599C22.8 8.43955 21.4008 9.10709 19.8 8.66251C18.8868 8.40866 18.234 7.67128 17.5116 6.856C16.3356 5.52629 14.9748 3.98975 12 3.98975ZM6 12.0002C2.7996 12.0002 0.8004 13.7798 0 17.3405C1.2 15.5595 2.6004 14.8933 4.2 15.3379C5.1132 15.5917 5.766 16.3291 6.4884 17.1444C7.6644 18.4728 9.0264 20.0107 12.0012 20.0107C15.2016 20.0107 17.2008 18.231 18.0012 14.6703C16.8012 16.45 15.4008 17.1175 13.8012 16.673C12.888 16.4191 12.2352 15.6817 11.514 14.8664C10.3356 13.5381 8.9736 12.0002 6 12.0002Z" fill="#607B96"/>
</svg>
