<svg width="400" height="144" viewBox="0 0 400 144" fill="none" xmlns="http://www.w3.org/2000/svg">
<path fill-rule="evenodd" clip-rule="evenodd" d="M301.026 0H323.528V96.9342H301.026V0ZM27.7342 24.1878H98.7039V48.4214H27.7342V24.1878ZM0 51.9638H22.5026V143.705H0V51.9638ZM98.7039 72.7303H27.7342V96.9638H98.7039V72.7303ZM74.312 48.459H98.5455V72.6926H74.312V48.459ZM105.718 24.1878H103.928V96.9333V121.122V121.167H199.131V96.9333H198.999V48.459H174.765V96.9333H126.43V48.4214H199.19V24.1878H126.43H105.718ZM159.228 64.0331H141.918V81.3427H159.228V64.0331ZM225.467 24.1878H226.687V25.6877L273.519 83.2617V24.1878H296.022V121.122H273.527H273.519V121.112L226.687 64.438V121.122H202.454V24.1878H225.467ZM399.957 24.1878H328.987V48.4214H399.957V24.1878ZM351.533 60.5549H400V84.7884H399.89V96.9333H399.957V121.167H328.987V96.9333H375.656V84.7884H351.533V60.5549Z" fill="white"/>
</svg>
