<svg width="24" height="24" viewBox="0 0 24 24" fill="none" xmlns="http://www.w3.org/2000/svg">
<path d="M17.2861 17.0589H19.8931V9.1148L16.9559 5.38717L15.1125 7.72676L17.2861 10.4854V17.0589ZM19.8999 18.7176H16.103H10.8066L8.63298 15.959L9.5547 14.7892L11.35 17.0677H15.0437L11.405 12.4409L12.3336 11.2623L15.9723 15.8804V11.1925L14.1839 8.92274L15.0988 7.76168L10.5796 2H6.12234H1.5L4.10007 5.29987V5.3086H4.11382H9.49279L11.3981 7.72676L8.61235 11.2623L6.70701 8.84417V6.96726H4.10007V10.2148L8.61235 15.9415L6.77579 18.2724L9.71291 22H14.1702H22.5L19.8999 18.7176Z" fill="#607B96"/>
</svg>
