<svg width="24" height="24" viewBox="0 0 24 24" fill="none" xmlns="http://www.w3.org/2000/svg">
<g clip-path="url(#clip0_2870_1048)">
<path d="M18.0413 17.8177H21.0207V8.68202L17.6639 4.39525L15.5571 7.08577L18.0413 10.2582V17.8177ZM21.0285 19.7252H16.6891H10.6361L8.15198 16.5528L9.20537 15.2076L11.2571 17.8279H15.4785L11.32 12.507L12.3813 11.1516L16.5398 16.4625V11.0714L14.4959 8.46115L15.5415 7.12593L10.3767 0.5H5.28267H0L2.97151 4.29485V4.30489H2.98722H9.13462L11.3121 7.08577L8.1284 11.1516L5.95087 8.37079V6.21235H2.97151V9.94702L8.1284 16.5327L6.02947 19.2133L9.38618 23.5H14.4802H24L21.0285 19.7252Z" fill="#607B96"/>
</g>
<defs>
<clipPath id="clip0_2870_1048">
<rect width="24" height="24" fill="white"/>
</clipPath>
</defs>
</svg>
