<svg width="24" height="24" viewBox="0 0 24 24" fill="none" xmlns="http://www.w3.org/2000/svg">
<path d="M12 1.5C6.20138 1.5 1.5 6.20138 1.5 12C1.5 17.7986 6.20138 22.5 12 22.5C17.7986 22.5 22.5 17.7986 22.5 12C22.5 6.20138 17.7986 1.5 12 1.5ZM19.9485 8.36263C19.9511 8.44663 19.9642 8.51838 19.9642 8.60588C19.9642 9.5185 19.7928 10.5457 19.2791 11.832L16.6655 19.3894C16.1108 19.7411 15.5149 20.0299 14.8858 20.2504L12.1593 12.7857L9.54212 20.3913C8.98212 20.2268 8.44575 20.0089 7.93825 19.742L3.90363 8.69337C4.14075 8.115 4.4365 7.56812 4.78563 7.05887C4.87488 7.06062 4.9755 7.06325 5.05425 7.06325C5.99575 7.06325 7.45438 6.94863 7.45438 6.94863C7.94088 6.9215 7.99688 7.63375 7.51213 7.6915C7.51213 7.6915 7.02387 7.74837 6.48137 7.77725L9.76087 17.5344L11.7314 11.622L10.3296 7.7755C9.84312 7.74837 9.38462 7.6915 9.38462 7.6915C8.89812 7.66263 8.95675 6.91975 9.4415 6.94863C9.4415 6.94863 10.929 7.06325 11.8128 7.06325C12.7543 7.06325 14.2129 6.94863 14.2129 6.94863C14.6994 6.9215 14.7554 7.63375 14.2706 7.6915C14.2706 7.6915 13.7815 7.74837 13.2399 7.77725L16.4949 17.46L17.3944 14.4552C17.8511 13.2854 18.0795 12.3168 18.0795 11.5441C18.0795 10.4311 17.6805 9.66025 17.3366 9.06087C16.8808 8.318 16.4511 7.69062 16.4511 6.94775C16.4511 6.20487 16.9586 5.51275 17.7032 5.378C18.6517 6.197 19.42 7.21288 19.9485 8.36263Z" fill="#607B96"/>
</svg>
