<svg width="24" height="24" viewBox="0 0 24 24" fill="none" xmlns="http://www.w3.org/2000/svg">
<path fill-rule="evenodd" clip-rule="evenodd" d="M11.3692 0.163773C11.7596 -0.05394 12.2403 -0.05394 12.6302 0.163773C14.5593 1.23977 20.3645 4.47861 22.2942 5.5546C22.6846 5.77174 22.925 6.17402 22.925 6.60945C22.925 8.76144 22.925 15.2385 22.925 17.3905C22.925 17.826 22.6846 18.2282 22.2942 18.446C20.3651 19.5219 14.5599 22.7608 12.6302 23.8368C12.2397 24.0545 11.759 24.0545 11.3692 23.8368C9.44005 22.7608 3.63485 19.5219 1.70515 18.446C1.3153 18.2282 1.07495 17.8265 1.07495 17.3911C1.07495 15.2391 1.07495 8.76201 1.07495 6.61002C1.07495 6.1746 1.3153 5.77231 1.70573 5.5546C3.63428 4.47861 9.44063 1.23977 11.3692 0.163773Z" fill="#586F86"/>
<path fill-rule="evenodd" clip-rule="evenodd" d="M1.24975 17.9452C1.0968 17.7417 1.07495 17.5486 1.07495 17.2886C1.07495 15.1492 1.07495 8.70925 1.07495 6.56927C1.07495 6.13613 1.31473 5.73613 1.704 5.52013C3.62623 4.45042 9.41188 1.23044 11.3341 0.16016C11.7234 -0.0564101 12.2507 -0.0518388 12.6399 0.164731C14.5622 1.23444 20.3283 4.42699 22.2505 5.4967C22.4057 5.58356 22.5242 5.68813 22.63 5.82584L1.24975 17.9452Z" fill="#607B96"/>
<path fill-rule="evenodd" clip-rule="evenodd" d="M12 4C16.443 4 20.0499 7.58455 20.0499 12C20.0499 16.4154 16.443 19.9999 12 19.9999C7.55693 19.9999 3.94995 16.4154 3.94995 12C3.94995 7.58455 7.55693 4 12 4ZM12 7.99998C14.2212 7.99998 16.0249 9.79197 16.0249 12C16.0249 14.2074 14.2212 15.9999 12 15.9999C9.77873 15.9999 7.97495 14.2074 7.97495 12C7.97495 9.79197 9.77815 7.99998 12 7.99998Z" fill="white"/>
<path fill-rule="evenodd" clip-rule="evenodd" d="M22.6293 5.83154C22.926 6.10754 22.9202 6.52354 22.9202 6.85097C22.9202 9.01953 22.9018 15.1874 22.9254 17.356C22.9277 17.5823 22.8524 17.8206 22.7397 18L11.7664 12L22.6293 5.83154Z" fill="#576676"/>
<path fill-rule="evenodd" clip-rule="evenodd" d="M16.0249 10.2856H17.1749V13.7142H16.0249V10.2856ZM20.0499 10.2856H21.1999V13.7142H20.0499V10.2856Z" fill="white"/>
<path fill-rule="evenodd" clip-rule="evenodd" d="M14.875 11.4287H18.325V12.5716H14.875V11.4287ZM18.9 11.4287H22.35V12.5716H18.9V11.4287Z" fill="white"/>
</svg>
