<svg width="24" height="24" viewBox="0 0 24 24" fill="none" xmlns="http://www.w3.org/2000/svg">
<g clip-path="url(#clip0_2870_984)">
<mask id="mask0_2870_984" style="mask-type:luminance" maskUnits="userSpaceOnUse" x="0" y="0" width="24" height="24">
<path d="M24 0H0V24H24V0Z" fill="white"/>
</mask>
<g mask="url(#mask0_2870_984)">
<path d="M21.2503 6.06008L17.3533 6.05908V13.8061C17.3533 17.2201 17.1762 18.5201 16.6202 19.6411C16.0893 20.7371 15.2543 21.4521 13.5322 22.267L17.1503 24.0001C18.8712 23.1341 19.7072 22.3441 20.3383 21.095C21.0223 19.7961 21.2493 18.2921 21.2493 15.1581L21.2503 6.06008Z" fill="#607B96"/>
<path d="M15.049 18.165V0H11.153V5.984C10.571 5.83099 10.089 5.78 9.45701 5.78C5.38099 5.78 2.75 8.37899 2.75 12.38C2.75 16.5339 5.22901 18.7 9.988 18.7C11.5821 18.701 13.0501 18.548 15.049 18.165ZM6.724 12.304C6.724 10.163 7.862 8.94 9.83703 8.94H9.832L9.91406 8.93899C10.357 8.93899 10.7821 9.014 11.152 9.144V15.4379C10.595 15.515 10.241 15.54 9.81097 15.54C7.81101 15.539 6.724 14.3939 6.724 12.304Z" fill="#607B96"/>
<path d="M21.2499 12H17.353V13.807C17.353 17.221 17.176 18.521 16.62 19.6421C16.089 20.7381 15.2539 21.453 13.532 22.268L17.1499 24C18.871 23.1341 19.707 22.344 20.3379 21.095C21.0219 19.796 21.249 18.292 21.249 15.1579L21.2499 12ZM15.049 12H11.153V15.4379C10.596 15.515 10.2419 15.54 9.812 15.54C7.812 15.54 6.724 14.3941 6.724 12.305C6.724 12.201 6.72699 12.1 6.732 12.001H2.758C2.75299 12.1261 2.75 12.253 2.75 12.381C2.75 16.535 5.22899 18.701 9.988 18.701C11.5819 18.701 13.0499 18.548 15.049 18.1661V12Z" fill="#506880"/>
<path d="M21.2498 0.0209961H17.3528V4.048H21.2498V0.0209961Z" fill="#607B96"/>
<path d="M19.3018 0.0209961H17.3528V4.048H19.3018V0.0209961Z" fill="#607B96"/>
</g>
</g>
<defs>
<clipPath id="clip0_2870_984">
<rect width="24" height="24" fill="white"/>
</clipPath>
</defs>
</svg>
