<svg width="24" height="24" viewBox="0 0 24 24" fill="none" xmlns="http://www.w3.org/2000/svg">
<g clip-path="url(#clip0_2870_1084)">
<path d="M23.8334 6.88886V22.2221C23.8334 22.5611 23.7087 22.8861 23.4869 23.1256C23.2649 23.3654 22.9639 23.5 22.6501 23.5H1.35007C1.03624 23.5 0.735256 23.3654 0.513338 23.1256C0.29142 22.8861 0.166748 22.5611 0.166748 22.2221V5.61109H22.6501C22.9639 5.61109 23.2649 5.74571 23.4869 5.98535C23.7087 6.22497 23.8334 6.54998 23.8334 6.88886ZM12.49 3.05555H0.166748V1.77778C0.166748 1.43888 0.29142 1.11388 0.513338 0.874251C0.735256 0.634622 1.03624 0.5 1.35007 0.5H10.1233L12.49 3.05555Z" fill="#43D9AD"/>
</g>
<defs>
<clipPath id="clip0_2870_1084">
<rect width="24" height="24" fill="white"/>
</clipPath>
</defs>
</svg>
