<svg width="24" height="24" viewBox="0 0 24 24" fill="none" xmlns="http://www.w3.org/2000/svg">
<path d="M0 4.8572C0 3.2813 0 2 0 2H23.9997C23.9997 2 23.9997 3.2813 23.9997 4.8572L24 22C24 22 22.6544 22 20.9997 22H3C1.3453 22 0 22 0 22V4.8572ZM15.1779 9.6116C14.967 9.317 14.6201 9.1429 14.2498 9.1429C13.8795 9.1429 13.528 9.317 13.3217 9.6116L9.2436 15.308L8.0015 13.8303C7.7858 13.5759 7.4624 13.4286 7.1249 13.4286C6.7874 13.4286 6.4593 13.5759 6.2484 13.8303L3.2484 17.4018C2.9765 17.7232 2.925 18.1652 3.1125 18.5357C3.3 18.9062 3.6937 19.1428 4.1249 19.1428H8.6249H10.1249H19.8748C20.2919 19.1428 20.6763 18.9241 20.8685 18.5714C21.0607 18.2187 21.0372 17.7946 20.8029 17.4687L15.1779 9.6116ZM5.2499 9.1429C5.8467 9.1429 6.419 8.9171 6.8409 8.5152C7.2629 8.1134 7.4999 7.5683 7.4999 7C7.4999 6.4317 7.2629 5.8866 6.8409 5.4848C6.419 5.0829 5.8467 4.8572 5.2499 4.8572C4.6532 4.8572 4.0809 5.0829 3.659 5.4848C3.237 5.8866 3 6.4317 3 7C3 7.5683 3.237 8.1134 3.659 8.5152C4.0809 8.9171 4.6532 9.1429 5.2499 9.1429Z" fill="#607B96"/>
</svg>
