<svg width="24" height="24" viewBox="0 0 24 24" fill="none" xmlns="http://www.w3.org/2000/svg">
<g clip-path="url(#clip0_2870_996)">
<path d="M0 0V24H24V0H0ZM13.0607 18.7178C13.0607 21.0536 11.6893 22.1197 9.69107 22.1197C7.88571 22.1197 6.84107 21.1875 6.30536 20.0571L8.14286 18.9482C8.49642 19.575 8.81786 20.1054 9.59464 20.1054C10.3339 20.1054 10.8054 19.8161 10.8054 18.6857V11.0197H13.0607V18.7178ZM18.3965 22.1197C16.3018 22.1197 14.9464 21.1232 14.2875 19.8161L16.125 18.7553C16.6071 19.5429 17.2393 20.1267 18.3482 20.1267C19.2803 20.1267 19.8803 19.6607 19.8803 19.0125C19.8803 18.241 19.2696 17.9679 18.2357 17.5125L17.6733 17.2714C16.0447 16.5803 14.9679 15.7071 14.9679 13.8696C14.9679 12.1768 16.259 10.8911 18.2679 10.8911C19.7035 10.8911 20.7321 11.3893 21.4714 12.6965L19.7143 13.8215C19.3286 13.1304 18.9107 12.8571 18.2625 12.8571C17.6035 12.8571 17.1857 13.275 17.1857 13.8215C17.1857 14.4965 17.6035 14.7696 18.5733 15.1929L19.1358 15.4339C21.0536 16.2536 22.1304 17.0946 22.1304 18.9803C22.1304 21.0054 20.5339 22.1197 18.3965 22.1197Z" fill="#607B96"/>
</g>
<defs>
<clipPath id="clip0_2870_996">
<rect width="24" height="24" fill="white"/>
</clipPath>
</defs>
</svg>
