<svg width="24" height="24" viewBox="0 0 24 24" fill="none" xmlns="http://www.w3.org/2000/svg">
<g clip-path="url(#clip0_2870_994)">
<path d="M22.2857 0.571289H1.70893C0.766068 0.571289 0 1.31108 0 2.21924V21.7804C0 22.6887 0.766068 23.4284 1.70893 23.4284H22.2857C23.2285 23.4284 24 22.6887 24 21.7804V2.21924C24 1.31108 23.2285 0.571289 22.2857 0.571289ZM7.25357 20.1632H3.69643V9.25496H7.25893V20.1632H7.25357ZM5.475 7.76516C4.33393 7.76516 3.4125 6.88251 3.4125 5.80088C3.4125 4.71924 4.33393 3.83659 5.475 3.83659C6.61072 3.83659 7.5375 4.71924 7.5375 5.80088C7.5375 6.88762 6.61607 7.76516 5.475 7.76516ZM20.5874 20.1632H17.0304V14.857C17.0304 13.5917 17.0035 11.9642 15.1822 11.9642C13.3285 11.9642 13.0446 13.3417 13.0446 14.7651V20.1632H9.4875V9.25496H12.9V10.7448H12.9482C13.425 9.88763 14.5876 8.98456 16.3178 8.98456C19.9178 8.98456 20.5874 11.2448 20.5874 14.1835V20.1632Z" fill="#607B96"/>
</g>
<defs>
<clipPath id="clip0_2870_994">
<rect width="24" height="24" fill="white"/>
</clipPath>
</defs>
</svg>
