<svg width="24" height="24" viewBox="0 0 24 24" fill="none" xmlns="http://www.w3.org/2000/svg">
<path d="M1.2 1H22.8C23.1182 1 23.4234 1.12877 23.6486 1.35798C23.8737 1.58719 24 1.89807 24 2.22221V21.7778C24 22.1019 23.8737 22.4128 23.6486 22.642C23.4234 22.8712 23.1182 23 22.8 23H1.2C0.881741 23 0.576517 22.8712 0.351473 22.642C0.126428 22.4128 0 22.1019 0 21.7778V2.22221C0 1.89807 0.126428 1.58719 0.351473 1.35798C0.576517 1.12877 0.881741 1 1.2 1ZM12.072 11.6125L4.37761 4.95755L2.8236 6.82021L12.0876 14.8318L21.1848 6.81409L19.6153 4.96487L12.072 11.6125Z" fill="#607B96"/>
</svg>
