<svg width="24" height="24" viewBox="0 0 24 24" fill="none" xmlns="http://www.w3.org/2000/svg">
<path d="M23.4734 4.03167C23.1024 4.04352 23.2198 4.15039 22.4183 4.34763C21.609 4.5468 20.6203 4.48573 19.7488 4.85123C17.1472 5.94232 16.6252 9.6715 14.26 11.0074C12.4921 12.006 10.7085 12.0856 9.1049 12.5881C8.05105 12.9186 6.89823 13.5963 5.94342 14.4191C5.20228 15.058 5.18293 15.6198 4.40855 16.4211C3.58026 17.2782 1.11658 16.4356 0 17.7474C0.359691 18.1111 0.517383 18.213 1.22622 18.1186C1.07946 18.3968 0.214372 18.6312 0.383715 19.0404C0.561901 19.4709 2.65333 19.7628 4.55453 18.6149C5.43995 18.0804 6.14518 17.3099 7.52415 17.126C9.3086 16.8881 11.3642 17.2785 13.43 17.5764C13.1237 18.4897 12.5088 19.0971 12.0161 19.8245C11.8636 19.9888 12.3225 20.0072 12.8461 19.9079C13.788 19.675 14.4668 19.4875 15.1776 19.0737C16.0509 18.5653 16.1832 17.262 17.2547 16.98C17.8517 17.8976 19.4754 18.1143 20.4829 17.3804C19.5988 17.1301 19.3545 15.2483 19.6529 14.4191C19.9356 13.6342 20.2149 12.3786 20.4996 11.341C20.8052 10.2267 20.918 8.82223 21.2879 8.25462C21.8444 7.40064 22.4593 7.10738 22.9931 6.62583C23.527 6.14427 24.0157 5.67552 23.9996 4.57363C23.9945 4.21872 23.8109 4.02088 23.4734 4.03167Z" fill="#002B64"/>
<path d="M22.6787 4.68457C22.7676 4.98758 22.9067 5.12664 23.5079 5.18226C23.4201 5.94451 22.9116 6.36143 22.3415 6.76145C21.8398 7.11329 21.2902 7.4521 20.9371 8.00169C20.5752 8.56473 20.3456 10.4916 19.7845 12.3946C19.2996 14.0388 18.5673 15.6646 17.2885 16.3769C17.1549 16.0407 17.3055 15.42 17.0398 15.216C16.8678 15.7064 16.6734 16.1743 16.4457 16.6091C15.6953 18.0434 14.5843 19.1173 12.7276 19.4452C13.6086 18.2531 14.4509 17.0221 14.4692 14.9674C13.8492 15.1016 13.8624 16.566 13.2253 16.9575C12.8169 17.002 12.4032 17.0017 11.9868 16.9767C10.2768 16.8742 8.52265 16.3603 6.92298 16.8736C5.83377 17.2231 4.94298 18.0478 4.02065 18.4478C2.93663 18.918 2.1157 19.1113 0.765803 18.918C0.594404 18.6871 1.75374 18.3891 1.68441 17.8878C1.15611 17.8294 0.849373 17.9574 0.390137 17.7488C0.440838 17.6554 0.515359 17.5775 0.609176 17.5127C1.45086 16.9301 3.84166 17.3751 4.48148 16.7469C4.87644 16.3594 5.13553 15.9538 5.40381 15.5595C5.66397 15.1769 5.93291 14.8049 6.34264 14.4697C6.49395 14.346 6.65843 14.2237 6.83302 14.1043C7.53126 13.6264 8.39504 13.193 9.24511 12.8943C10.4031 12.4872 11.5766 12.4537 12.8108 11.9821C13.5733 11.6906 14.4025 11.3307 15.0784 10.827C15.2389 10.7072 15.3907 10.5796 15.5311 10.4428C17.4611 8.5614 17.8436 5.24268 20.8547 4.93342C21.2188 4.89602 21.5169 4.90813 21.7882 4.89988C22.1009 4.89057 22.3777 4.85424 22.6787 4.68457ZM19.008 15.3064C19.044 15.8815 19.3778 17.0226 19.6726 17.2999C19.0953 17.4403 18.1009 17.2084 17.8458 16.8012C17.9768 16.2132 18.659 15.6758 19.008 15.3064Z" fill="#607B96"/>
<path d="M22.8954 5.32838C22.7794 5.5718 22.5572 5.88565 22.5572 6.50531C22.5562 6.6117 22.4764 6.68458 22.475 6.52057C22.481 5.91494 22.6414 5.65313 22.8116 5.30904C22.8908 5.16805 22.9385 5.22622 22.8954 5.32838ZM22.7785 5.2367C22.6416 5.46896 22.312 5.8926 22.2575 6.50994C22.2474 6.61579 22.1613 6.68131 22.1744 6.51771C22.2338 5.91507 22.4973 5.53788 22.6972 5.21001C22.7879 5.07665 22.8306 5.13876 22.7785 5.2367ZM22.672 5.1152C22.5161 5.33505 22.0086 5.84383 21.9025 6.4545C21.8835 6.55898 21.7922 6.61728 21.819 6.45532C21.9288 5.85963 22.3662 5.39145 22.593 5.08182C22.6946 4.95637 22.7318 5.02189 22.672 5.1152ZM22.5769 4.97966L22.5256 5.03424C22.2987 5.27748 21.7717 5.87076 21.596 6.41377C21.5622 6.51457 21.4638 6.55953 21.5132 6.40288C21.7055 5.82858 22.2353 5.21001 22.5034 4.93539C22.6218 4.82546 22.6493 4.89561 22.5769 4.97966ZM19.8535 6.20917C19.9711 5.70421 20.3638 5.47413 21.0418 5.53026C21.2054 6.28396 20.2898 6.588 19.8535 6.20917Z" fill="#002B64"/>
</svg>
