<svg width="24" height="24" viewBox="0 0 24 24" fill="none" xmlns="http://www.w3.org/2000/svg">
<g clip-path="url(#clip0_2870_998)">
<path d="M3.25 21.6H20.75V24H3.25V21.6ZM12 19.2C9.34784 19.2 6.8043 18.1886 4.92894 16.3882C3.05356 14.5878 2 12.1461 2 9.60004C2 7.05391 3.05356 4.61211 4.92894 2.81177C6.8043 1.01142 9.34784 0 12 0C14.6521 0 17.1958 1.01142 19.0711 2.81177C20.9464 4.61211 22 7.05391 22 9.60004C22 12.1461 20.9464 14.5878 19.0711 16.3882C17.1958 18.1886 14.6521 19.2 12 19.2Z" fill="#607B96"/>
</g>
<defs>
<clipPath id="clip0_2870_998">
<rect width="24" height="24" fill="white"/>
</clipPath>
</defs>
</svg>
