<svg width="24" height="24" viewBox="0 0 24 24" fill="none" xmlns="http://www.w3.org/2000/svg">
<g clip-path="url(#clip0_2870_1094)">
<path d="M23.9495 17.802V22.4437C23.9496 22.7759 23.8223 23.096 23.5931 23.3391C23.364 23.5823 23.05 23.7305 22.7146 23.7536C22.1344 23.7931 21.6604 23.8141 21.294 23.8141C9.56028 23.8141 0.0493164 14.4114 0.0493164 2.81138C0.0493164 2.44907 0.0692332 1.98046 0.110395 1.40682C0.133926 1.07529 0.283779 0.764929 0.529716 0.538365C0.775651 0.311801 1.09936 0.185885 1.43553 0.186035H6.13059C6.29529 0.185871 6.45417 0.246234 6.57637 0.355398C6.69856 0.464558 6.77536 0.614736 6.79183 0.776743C6.82237 1.07864 6.85025 1.31887 6.87682 1.50133C7.14069 3.3219 7.68146 5.09258 8.48079 6.75331C8.60692 7.01585 8.52459 7.32958 8.28559 7.4976L5.42022 9.52174C7.17218 13.5575 10.4254 16.7736 14.5076 18.5057L16.5524 15.6781C16.6359 15.5626 16.7579 15.4798 16.897 15.444C17.036 15.4083 17.1833 15.4219 17.3133 15.4826C18.9929 16.2714 20.7836 16.8046 22.6245 17.0644C22.8089 17.0906 23.0519 17.1194 23.3547 17.1484C23.5184 17.1649 23.6698 17.2409 23.7801 17.3618C23.8901 17.4826 23.9498 17.6394 23.9495 17.802Z" fill="#607B96"/>
</g>
<defs>
<clipPath id="clip0_2870_1094">
<rect width="24" height="24" fill="white"/>
</clipPath>
</defs>
</svg>
