<svg width="24" height="24" viewBox="0 0 24 24" fill="none" xmlns="http://www.w3.org/2000/svg">
<g clip-path="url(#clip0_2870_1052)">
<path d="M12 13.8073C11.5454 13.8073 11.1094 13.6169 10.7878 13.278C10.4663 12.939 10.2857 12.4794 10.2857 12C10.2857 11.5207 10.4663 11.061 10.7878 10.722C11.1094 10.3831 11.5454 10.1927 12 10.1927C12.4546 10.1927 12.8907 10.3831 13.2122 10.722C13.5337 11.061 13.7143 11.5207 13.7143 12C13.7143 12.4794 13.5337 12.939 13.2122 13.278C12.8907 13.6169 12.4546 13.8073 12 13.8073ZM11.3966 17.4146C11.5966 17.6677 11.7977 17.9135 12 18.1484C12.2023 17.9135 12.4034 17.6689 12.6034 17.4146C12.2012 17.4237 11.7988 17.4237 11.3966 17.4146ZM9.11658 17.264C8.23893 17.1678 7.36709 17.0198 6.50515 16.8206C6.41943 17.2423 6.35429 17.652 6.31086 18.0448C6.09372 19.9521 6.39658 21.1112 6.85715 21.3907C7.31772 21.6715 8.42058 21.3678 9.88001 20.2172C10.1806 19.9798 10.4834 19.716 10.7874 19.428C10.1926 18.7401 9.63475 18.0177 9.11658 17.264ZM17.4949 16.8206C16.6754 17.0134 15.8 17.1628 14.8834 17.264C14.3652 18.0177 13.8074 18.7401 13.2126 19.428C13.5166 19.7172 13.8194 19.9798 14.12 20.2172C15.5794 21.3678 16.6823 21.6715 17.1428 21.3907C17.6034 21.1112 17.9051 19.9521 17.6903 18.0448C17.6431 17.6339 17.5771 17.2255 17.4949 16.8206ZM19.152 16.3544C19.8114 19.534 19.4651 22.0655 18 22.9571C16.5348 23.8487 14.2823 22.8992 12 20.7076C9.71772 22.8992 7.46515 23.8475 6 22.9559C4.53486 22.0643 4.18857 19.534 4.84686 16.3531C1.90514 15.3664 0 13.7832 0 12C0 10.2168 1.90514 8.63477 4.84686 7.64556C4.18857 4.4659 4.53486 1.93446 6 1.04286C7.46515 0.151252 9.71772 1.10069 12 3.29236C14.2823 1.10069 16.5348 0.152457 18 1.04406C19.4651 1.93567 19.8114 4.4659 19.1531 7.64677C22.0949 8.63356 24 10.2168 24 12C24 13.7832 22.0937 15.3652 19.152 16.3544ZM10.7863 4.57193C10.4957 4.29458 10.1933 4.03124 9.88001 3.78274C8.42058 2.63209 7.31772 2.32846 6.85715 2.60919C6.39658 2.88872 6.09486 4.04781 6.30972 5.95513C6.35543 6.34912 6.41943 6.75757 6.504 7.17928C7.36633 6.98015 8.23855 6.83212 9.11658 6.73588C9.65944 5.9491 10.2183 5.22497 10.7863 4.57193ZM14.8834 6.73588C15.8 6.83709 16.6754 6.9877 17.4949 7.17928C17.5806 6.75757 17.6457 6.34792 17.6891 5.95513C17.9063 4.04781 17.6034 2.88872 17.1428 2.60919C16.6823 2.32846 15.5794 2.63209 14.12 3.78274C13.8064 4.03122 13.5036 4.29455 13.2126 4.57193C13.7806 5.22497 14.3406 5.9491 14.8834 6.73588ZM12.6034 6.58528C12.4034 6.33225 12.2023 6.08646 12 5.85151C11.7977 6.08646 11.5966 6.33105 11.3966 6.58528C11.7988 6.57627 12.2012 6.57627 12.6034 6.58528ZM7.85372 15.2579C7.64522 14.8954 7.44403 14.5282 7.25029 14.1567C7.14172 14.4663 7.04115 14.7712 6.94972 15.0736C7.24343 15.141 7.54629 15.2025 7.85372 15.2579ZM10.0617 15.5399C11.3521 15.6409 12.6479 15.6409 13.9383 15.5399C14.6665 14.4121 15.3144 13.2289 15.8766 12C15.3144 10.7711 14.6665 9.58788 13.9383 8.46006C12.6479 8.35902 11.3521 8.35902 10.0617 8.46006C9.33349 9.58788 8.68562 10.7711 8.12343 12C8.68562 13.2289 9.33349 14.4121 10.0617 15.5399ZM16.7497 9.84325C16.8583 9.5336 16.9588 9.22877 17.0503 8.92634C16.7507 8.8578 16.4497 8.79634 16.1474 8.742C16.3555 9.10456 16.5563 9.47172 16.7497 9.84325ZM5.29143 9.39384C4.90286 9.52637 4.53486 9.67096 4.18972 9.82759C2.51543 10.5843 1.71428 11.4397 1.71428 12C1.71428 12.5602 2.51429 13.4157 4.18972 14.1723C4.53486 14.329 4.90286 14.4735 5.29143 14.6061C5.54515 13.7627 5.85943 12.8879 6.23429 12C5.87409 11.1505 5.55932 10.2804 5.29143 9.39384ZM6.94858 8.92634C7.04115 9.22756 7.14172 9.5336 7.25029 9.84205C7.44404 9.47091 7.64523 9.10415 7.85372 8.742C7.54515 8.79742 7.24229 8.85887 6.94858 8.92634ZM18.7086 14.6061C19.0971 14.4735 19.4651 14.329 19.8103 14.1723C21.4846 13.4157 22.2857 12.5602 22.2857 12C22.2857 11.4397 21.4857 10.5843 19.8103 9.82759C19.4495 9.66553 19.0818 9.52081 18.7086 9.39384C18.4549 10.2372 18.1406 11.112 17.7657 12C18.1406 12.8879 18.4549 13.7615 18.7086 14.6061ZM17.0514 15.0736C16.9588 14.7724 16.8583 14.4663 16.7497 14.1579C16.556 14.5291 16.3548 14.8959 16.1463 15.2579C16.4548 15.2025 16.7577 15.141 17.0514 15.0736Z" fill="#607B96"/>
</g>
<defs>
<clipPath id="clip0_2870_1052">
<rect width="24" height="24" fill="white"/>
</clipPath>
</defs>
</svg>
