<svg width="24" height="25" viewBox="0 0 24 25" fill="none" xmlns="http://www.w3.org/2000/svg">
<path d="M1.2 2.5H22.8C23.1183 2.5 23.4235 2.61708 23.6486 2.82542C23.8736 3.03383 24 3.31642 24 3.61108V21.3889C24 21.6836 23.8736 21.9662 23.6486 22.1746C23.4235 22.3829 23.1183 22.5 22.8 22.5H1.2C0.881743 22.5 0.576514 22.3829 0.351514 22.1746C0.126429 21.9662 0 21.6836 0 21.3889V3.61108C0 3.31642 0.126429 3.03383 0.351514 2.82542C0.576514 2.61708 0.881743 2.5 1.2 2.5ZM6 16.3889V11.9444L8.4 14.1667L10.8 11.9444V16.3889H13.2V8.61108H10.8L8.4 10.8333L6 8.61108H3.6V16.3889H6ZM19.2 13.0556V8.61108H16.8V13.0556H14.4L18 16.3889L21.6 13.0556H19.2Z" fill="#607B96"/>
</svg>
