<svg width="24" height="24" viewBox="0 0 24 24" fill="none" xmlns="http://www.w3.org/2000/svg">
<path d="M5.53385 10.0283C5.46938 9.88924 5.33011 9.80029 5.17692 9.80029C5.17723 9.80029 5.17661 9.80029 5.17692 9.80029C5.02337 9.80065 4.88312 9.89033 4.8192 10.03L2.8693 14.289C2.77886 14.4866 2.86566 14.7201 3.06322 14.8106C3.11631 14.8348 3.17199 14.8463 3.22676 14.8463C3.3759 14.8463 3.51856 14.7611 3.58472 14.6165L4.07376 13.5483H6.29811L6.79401 14.6183C6.88539 14.8154 7.11921 14.9012 7.3164 14.8097C7.51353 14.7184 7.59925 14.4845 7.50791 14.2874L5.53385 10.0283ZM4.43402 12.7615L5.17916 11.1341L5.93343 12.7615H4.43402Z" fill="#607B96"/>
<path d="M10.0773 9.75195H8.17516C7.95787 9.75195 7.78174 9.92812 7.78174 10.1454V14.453C7.78174 14.6703 7.95787 14.8465 8.17516 14.8465C8.39245 14.8465 8.56858 14.6703 8.56858 14.453V12.8167H10.0773C10.9222 12.8167 11.6095 12.1293 11.6095 11.2845C11.6096 10.4394 10.9222 9.75195 10.0773 9.75195ZM10.0773 12.0299H8.56858V10.5388H10.0773C10.4883 10.5388 10.8227 10.8733 10.8227 11.2844C10.8228 11.6955 10.4883 12.0299 10.0773 12.0299Z" fill="#607B96"/>
<path d="M12.3055 9.75195C12.0882 9.75195 11.9121 9.92812 11.9121 10.1454V14.453C11.9121 14.6703 12.0882 14.8465 12.3055 14.8465C12.5228 14.8465 12.6989 14.6703 12.6989 14.453V10.1454C12.6989 9.92812 12.5227 9.75195 12.3055 9.75195Z" fill="#607B96"/>
<path d="M23.2621 3.31348H0.737928C0.331004 3.31348 0 3.63081 0 4.02079V19.9789C0 20.3688 0.331004 20.6861 0.737928 20.6861H23.2621C23.6689 20.6861 24 20.3688 24 19.9789V4.02079C23.9999 3.63081 23.6689 3.31348 23.2621 3.31348ZM17.744 16.1923C18.0701 15.4544 18.8211 14.9776 19.6574 14.9776C19.936 14.9776 20.2082 15.0307 20.4666 15.1355C21.5212 15.5635 22.0159 16.7339 21.5695 17.7445C21.2431 18.4824 20.4921 18.9592 19.6561 18.9592C19.3775 18.9592 19.1053 18.906 18.847 18.8012C18.3361 18.5939 17.94 18.2084 17.7318 17.7156C17.5233 17.2228 17.5278 16.6819 17.744 16.1923ZM20.2653 5.32804C20.6975 5.32804 21.0476 5.66377 21.0476 6.07777C21.0476 6.49189 20.6975 6.82751 20.2653 6.82751C19.8333 6.82751 19.483 6.49189 19.483 6.07777C19.483 5.66377 19.8333 5.32804 20.2653 5.32804ZM17.9188 5.32804C18.3507 5.32804 18.7011 5.66377 18.7011 6.07777C18.7011 6.49189 18.3507 6.82751 17.9188 6.82751C17.4868 6.82751 17.1364 6.49189 17.1364 6.07777C17.1364 5.66377 17.4868 5.32804 17.9188 5.32804ZM15.5722 5.32804C16.0042 5.32804 16.3542 5.66377 16.3542 6.07777C16.3542 6.49189 16.0042 6.82751 15.5722 6.82751C15.1399 6.82751 14.7899 6.49189 14.7899 6.07777C14.7899 5.66377 15.14 5.32804 15.5722 5.32804ZM1.34337 19.5056V9.05966H22.6566V13.1316C22.5594 12.9983 22.4243 12.8882 22.2569 12.8202L20.955 12.2921C20.8391 12.245 20.7168 12.2211 20.5916 12.2211C20.2154 12.2211 19.8777 12.4354 19.7312 12.7671L19.652 12.9461C19.0693 12.954 18.4911 13.0827 17.964 13.321L17.8108 13.1935C17.7366 13.1319 17.6529 13.082 17.5624 13.0454C17.4462 12.9983 17.3236 12.9743 17.198 12.9743C16.9279 12.9743 16.6711 13.0868 16.4935 13.2829L15.5669 14.3067C15.4038 14.4875 15.3235 14.718 15.3407 14.9565C15.3587 15.195 15.4724 15.4126 15.6606 15.5687L15.8132 15.6957C15.6392 16.2313 15.5882 16.796 15.6638 17.3507L15.4902 17.4508C15.0493 17.705 14.9066 18.256 15.1719 18.6792L15.7291 19.5655H1.40589C1.3714 19.5655 1.34337 19.5387 1.34337 19.5056Z" fill="#607B96"/>
</svg>
