<svg width="24" height="24" viewBox="0 0 24 24" fill="none" xmlns="http://www.w3.org/2000/svg">
<path d="M1.2 1.32031H22.8C23.1182 1.32031 23.4234 1.44533 23.6485 1.66787C23.8735 1.89041 24 2.19224 24 2.50696V21.4933C24 21.808 23.8735 22.1098 23.6485 22.3323C23.4234 22.5548 23.1182 22.6799 22.8 22.6799H1.2C0.881735 22.6799 0.576519 22.5548 0.351472 22.3323C0.126429 22.1098 0 21.808 0 21.4933V2.50696C0 2.19224 0.126429 1.89041 0.351472 1.66787C0.576519 1.44533 0.881735 1.32031 1.2 1.32031ZM5.99998 16.1534V11.4068L8.39999 13.7801L10.8 11.4068V16.1534H13.2V7.84685H10.8L8.39999 10.2201L5.99998 7.84685H3.59999V16.1534H5.99998ZM19.2 12.5934V7.84685H16.8V12.5934H14.4L18 16.1534L21.6 12.5934H19.2Z" fill="#81A1C1"/>
</svg>
