<svg width="24" height="24" viewBox="0 0 24 24" fill="none" xmlns="http://www.w3.org/2000/svg">
<g clip-path="url(#clip0_2870_1100)">
<path d="M9.33333 4.00001V6.66666H2.66667V21.3333H17.3334V14.6667H19.9999V22.6667C19.9999 23.0204 19.8595 23.3595 19.6095 23.6096C19.3594 23.8596 19.0203 24 18.6666 24H1.33333C0.979712 24 0.640572 23.8596 0.390524 23.6096C0.140476 23.3595 0 23.0204 0 22.6667V5.33334C0 4.97972 0.140476 4.64058 0.390524 4.39053C0.640572 4.14048 0.979712 4.00001 1.33333 4.00001H9.33333ZM24 0V10.6667H21.3333V4.55067L10.9427 14.9427L9.05733 13.0573L19.4466 2.66667H13.3333V0H24Z" fill="#607B96"/>
</g>
<defs>
<clipPath id="clip0_2870_1100">
<rect width="24" height="24" fill="white"/>
</clipPath>
</defs>
</svg>
