<svg width="24" height="24" viewBox="0 0 24 24" fill="none" xmlns="http://www.w3.org/2000/svg">
<path d="M23.9988 5.1711C23.1 5.53603 22.1468 5.77571 21.1707 5.88218C22.1995 5.31746 22.9694 4.42869 23.3371 3.3815C22.3717 3.90887 21.3132 4.27846 20.21 4.47839C19.4689 3.75064 18.4867 3.26799 17.416 3.10548C16.3453 2.94297 15.246 3.1097 14.2892 3.57975C13.3323 4.0498 12.5715 4.79684 12.1249 5.70473C11.6783 6.61261 11.5711 7.63048 11.8199 8.60008C9.86197 8.51001 7.94662 8.04302 6.19814 7.22942C4.44965 6.41582 2.90714 5.27382 1.67072 3.87753C1.23307 4.56749 1.00309 5.35181 1.00432 6.15019C1.00432 7.71717 1.87323 9.10152 3.19427 9.91203C2.41249 9.88945 1.64792 9.69568 0.964286 9.34684V9.40303C0.964521 10.4466 1.35797 11.458 2.07792 12.2657C2.79788 13.0735 3.80002 13.6279 4.91444 13.8349C4.18871 14.0154 3.42776 14.0419 2.68917 13.9127C3.00338 14.8109 3.61579 15.5966 4.44065 16.1595C5.26552 16.7224 6.26153 17.0345 7.28925 17.052C6.26783 17.7883 5.09833 18.3327 3.84758 18.6538C2.59684 18.9749 1.2894 19.0666 0 18.9238C2.25082 20.2524 4.871 20.9577 7.5471 20.9554C16.6048 20.9554 21.5581 14.0683 21.5581 8.09541C21.5581 7.90089 21.5522 7.7042 21.5428 7.51184C22.5069 6.87227 23.339 6.07997 24 5.17218L23.9988 5.1711Z" fill="#607B96"/>
</svg>
