<svg width="24" height="24" viewBox="0 0 24 24" fill="none" xmlns="http://www.w3.org/2000/svg">
<g clip-path="url(#clip0_2870_1050)">
<path d="M12 0C5.37301 0 0 5.37301 0 12C0 18.627 5.37301 24 12 24C18.627 24 24 18.627 24 12C24 5.37301 18.627 0 12 0ZM21.084 7.84301C21.087 7.93901 21.1019 8.02101 21.1019 8.12101C21.1019 9.164 20.9061 10.3379 20.319 11.808L17.332 20.445C16.6981 20.847 16.017 21.177 15.2981 21.429L12.1821 12.8979L9.19099 21.5901C8.55099 21.4021 7.938 21.153 7.358 20.848L2.74701 8.22099C3.018 7.56 3.356 6.93499 3.75501 6.35299C3.85701 6.35499 3.972 6.358 4.062 6.358C5.138 6.358 6.80501 6.22701 6.80501 6.22701C7.36101 6.196 7.42501 7.01 6.87101 7.076C6.87101 7.076 6.31299 7.14099 5.69299 7.174L9.44099 18.325L11.693 11.568L10.091 7.172C9.535 7.14099 9.01099 7.076 9.01099 7.076C8.45499 7.04301 8.522 6.194 9.076 6.22701C9.076 6.22701 10.776 6.358 11.7861 6.358C12.8621 6.358 14.529 6.22701 14.529 6.22701C15.085 6.196 15.149 7.01 14.595 7.076C14.595 7.076 14.036 7.14099 13.417 7.174L17.137 18.24L18.165 14.8059C18.687 13.469 18.948 12.3621 18.948 11.479C18.948 10.207 18.492 9.326 18.099 8.64099C17.5781 7.792 17.087 7.07499 17.087 6.226C17.087 5.37699 17.667 4.586 18.5179 4.432C19.6019 5.368 20.48 6.52901 21.084 7.84301Z" fill="#607B96"/>
</g>
<defs>
<clipPath id="clip0_2870_1050">
<rect width="24" height="24" fill="white"/>
</clipPath>
</defs>
</svg>
