<svg width="24" height="24" viewBox="0 0 24 24" fill="none" xmlns="http://www.w3.org/2000/svg">
<path d="M11.2812 3C11.149 3 11.0417 3.112 11.0417 3.25V4.74999C11.0417 4.88799 11.149 4.99999 11.2812 4.99999H12.7187C12.851 4.99999 12.9583 4.88799 12.9583 4.74999V3.25C12.9583 3.112 12.851 3 12.7187 3H11.2812ZM5.53125 5.99999C5.399 5.99999 5.29167 6.11199 5.29167 6.24999V7.74998C5.29167 7.88798 5.399 7.99998 5.53125 7.99998H6.96875C7.101 7.99998 7.20833 7.88798 7.20833 7.74998V6.24999C7.20833 6.11199 7.101 5.99999 6.96875 5.99999H5.53125ZM8.40625 5.99999C8.274 5.99999 8.16667 6.11199 8.16667 6.24999V7.74998C8.16667 7.88798 8.274 7.99998 8.40625 7.99998H9.84375C9.976 7.99998 10.0833 7.88798 10.0833 7.74998V6.24999C10.0833 6.11199 9.976 5.99999 9.84375 5.99999H8.40625ZM11.2812 5.99999C11.149 5.99999 11.0417 6.11199 11.0417 6.24999V7.74998C11.0417 7.88798 11.149 7.99998 11.2812 7.99998H12.7187C12.851 7.99998 12.9583 7.88798 12.9583 7.74998V6.24999C12.9583 6.11199 12.851 5.99999 12.7187 5.99999H11.2812ZM18.4585 7.15037L18.2413 7.47557C17.9696 7.91257 17.7719 8.39389 17.6555 8.89939C17.4355 9.86589 17.5686 10.7733 18.0411 11.5488C17.4704 11.8793 16.4975 11.993 16.3125 12H1.45833C0.928854 12 0.5 12.4475 0.5 13C0.5 14 0.707824 15.4623 1.16447 16.7578C1.68628 18.1798 2.46318 19.2271 3.47327 19.8681C4.60506 20.5886 6.444 20.9999 8.52885 20.9999C9.47041 21.0029 10.4107 20.9143 11.3365 20.7353C12.6235 20.4898 13.8619 20.0225 15.0004 19.3525C15.9386 18.788 16.7828 18.0695 17.5011 17.2255C18.7014 15.8135 19.4165 14.2407 19.9484 12.8437C19.9508 12.8422 19.9525 12.8418 19.9549 12.8398C21.391 12.9003 22.2602 12.3213 22.7288 11.8398C23.025 11.5478 23.2564 11.1913 23.4064 10.7968L23.5 10.5107L23.2735 10.3252C23.2112 10.2737 22.6289 9.81638 21.4008 9.81638C21.0764 9.81788 20.7527 9.84729 20.4331 9.90329C20.1955 8.2108 18.8492 7.38464 18.7888 7.34764L18.4585 7.15037ZM2.65625 8.99998C2.524 8.99998 2.41667 9.11197 2.41667 9.24997V10.75C2.41667 10.888 2.524 11 2.65625 11H4.09375C4.226 11 4.33333 10.888 4.33333 10.75V9.24997C4.33333 9.11197 4.226 8.99998 4.09375 8.99998H2.65625ZM5.53125 8.99998C5.399 8.99998 5.29167 9.11197 5.29167 9.24997V10.75C5.29167 10.888 5.399 11 5.53125 11H6.96875C7.101 11 7.20833 10.888 7.20833 10.75V9.24997C7.20833 9.11197 7.101 8.99998 6.96875 8.99998H5.53125ZM8.40625 8.99998C8.274 8.99998 8.16667 9.11197 8.16667 9.24997V10.75C8.16667 10.888 8.274 11 8.40625 11H9.84375C9.976 11 10.0833 10.888 10.0833 10.75V9.24997C10.0833 9.11197 9.976 8.99998 9.84375 8.99998H8.40625ZM11.2812 8.99998C11.149 8.99998 11.0417 9.11197 11.0417 9.24997V10.75C11.0417 10.888 11.149 11 11.2812 11H12.7187C12.851 11 12.9583 10.888 12.9583 10.75V9.24997C12.9583 9.11197 12.851 8.99998 12.7187 8.99998H11.2812ZM14.1562 8.99998C14.024 8.99998 13.9167 9.11197 13.9167 9.24997V10.75C13.9167 10.888 14.024 11 14.1562 11H15.5937C15.726 11 15.8333 10.888 15.8333 10.75V9.24997C15.8333 9.11197 15.726 8.99998 15.5937 8.99998H14.1562Z" fill="#607B96"/>
</svg>
