<svg width="24" height="24" viewBox="0 0 24 24" fill="none" xmlns="http://www.w3.org/2000/svg">
<g clip-path="url(#clip0_2842_979)">
<path d="M11.76 0.959961C7.58434 0.959961 6.71996 3.11621 6.71996 4.36496V6.71996H11.52V7.19996H4.36496C2.78059 7.19996 0.959961 8.44871 0.959961 12C0.959961 15.5512 2.78059 16.8 4.36496 16.8H7.19996V13.92C7.19996 12.8643 8.06434 12 9.11996 12H14.88C15.6956 12 16.32 11.3756 16.32 10.56V4.36496C16.32 2.68496 14.7356 0.959961 11.76 0.959961ZM9.59996 3.35996C10.1287 3.35996 10.56 3.79121 10.56 4.31996C10.56 4.84871 10.1287 5.27996 9.59996 5.27996C9.07121 5.27996 8.63996 4.84871 8.63996 4.31996C8.63996 3.79121 9.07121 3.35996 9.59996 3.35996ZM16.8 7.19996V10.56C16.8 11.6156 15.9356 12.48 14.88 12.48H9.11996C8.30434 12.48 7.67996 13.1043 7.67996 13.92V19.635C7.67996 21.315 9.26434 23.04 12.24 23.04C16.4156 23.04 17.28 20.8837 17.28 19.635V17.28H12.48V16.8H19.635C21.2193 16.8 23.04 15.5512 23.04 12C23.04 8.44871 21.2193 7.19996 19.635 7.19996H16.8ZM14.4 18.72C14.9287 18.72 15.36 19.1512 15.36 19.68C15.36 20.2087 14.9287 20.64 14.4 20.64C13.8712 20.64 13.44 20.2087 13.44 19.68C13.44 19.1512 13.8712 18.72 14.4 18.72Z" fill="#607B96"/>
</g>
<defs>
<clipPath id="clip0_2842_979">
<rect width="24" height="24" fill="white"/>
</clipPath>
</defs>
</svg>
